<svg xmlns="http://www.w3.org/2000/svg" viewBox="0 0 96 96" width="96" height="96">
  <title>TripSplit Icon — Light 96×96</title>
  <defs>
    <clipPath id="rr"><rect x="0" y="0" width="96" height="96" rx="22"/></clipPath>
    <clipPath id="pin"><path d="M48 8.6 C30.7 8.6 18.2 21.1 18.2 36.5 C18.2 51.8 33.6 68.2 48 81.6 C62.4 68.2 77.8 51.8 77.8 36.5 C77.8 21.1 65.3 8.6 48 8.6 Z"/></clipPath>
  </defs>
  <rect x="0" y="0" width="96" height="96" rx="22" fill="#ffffff"/>
  <g clip-path="url(#rr)">
    <g clip-path="url(#pin)">
      <rect x="0" y="0" width="46.5" height="96" fill="#6366f1"/>
      <rect x="46.5" y="0" width="3" height="96" fill="#ffffff"/>
      <rect x="49.5" y="0" width="46.5" height="96" fill="#F59E0B"/>
    </g>
    <path d="M48 8.6 C30.7 8.6 18.2 21.1 18.2 36.5 C18.2 51.8 33.6 68.2 48 81.6 C62.4 68.2 77.8 51.8 77.8 36.5 C77.8 21.1 65.3 8.6 48 8.6 Z" fill="none" stroke="#ffffff" stroke-width="2"/>
    <circle cx="48" cy="35" r="9.6" fill="#ffffff"/>
    <polygon points="45.1,36 45.1,82.6 48,87.4 50.9,82.6 50.9,36" fill="#ffffff"/>
  </g>
</svg>
